<?xml version="1.0" encoding="UTF-8"?><svg id="Layer_1" xmlns="http://www.w3.org/2000/svg" viewBox="0 0 911.6 143.2"><defs><style>.cls-1{fill:#fff;}</style></defs><path class="cls-1" d="m41.6,89.3c0-2.5,2.1-4.6,4.6-4.6h.8c2.5,0,4.6,2.1,4.6,4.6v35.1l4.4,4.4v-40.4c0-2.1,1.7-3.7,3.8-3.7h.6c2.1,0,3.8,1.7,3.8,3.7v48.5l6.3,6.3v-55.5c0-1.7,1.4-3.1,3.1-3.1h.5c1.7,0,3.1,1.4,3.1,3.1v53.6l8.6-8.6v-45.8c0-1.2,1-2.2,2.2-2.2h.4c1.2,0,2.2,1,2.2,2.2v41l7.7-7.7v-33.5c0-1.1.9-2,2-2h.3c1.1,0,2,.9,2,2v29.2l43-43L72.8,0,0,72.8l41.5,41.5v-25h.1Zm-18.9-22.6c0-2,1.6-3.6,3.6-3.6h91.6c2,0,3.6,1.6,3.6,3.6s-1.6,3.6-3.6,3.6H26.3c-2-.1-3.6-1.7-3.6-3.6Zm10.1,12c0-1.6,1.3-2.9,2.9-2.9h74.3c1.6,0,2.9,1.3,2.9,2.9s-1.3,2.9-2.9,2.9H35.7c-1.6,0-2.9-1.3-2.9-2.9Z"/><path class="cls-1" d="m233,64.8l9,2.8c-2,9.3-5.5,16.2-10.5,20.8s-11.1,6.9-18.2,6.9c-6.3,0-11.7-1.5-16.1-4.6-4.5-3.1-8.1-8-11-14.8-2.8-6.8-4.3-14.8-4.3-24s1.4-16.8,4.3-23.1c2.8-6.3,6.7-11.1,11.6-14.3,4.9-3.2,10.3-4.8,16.3-4.8,6.6,0,12.2,2,16.9,6.1,4.7,4.1,8,10.1,9.9,17.9l-8.8,2.5c-3-11.5-9.1-17.2-18.1-17.2-4.5,0-8.4,1.2-11.8,3.5-3.3,2.3-6,5.9-7.9,10.8-2,4.9-3,11.1-3,18.6,0,11.3,2,19.8,6,25.5,4,5.7,9.3,8.5,15.9,8.5,4.9,0,9.1-1.7,12.7-5.2,3.5-3.6,5.9-8.9,7.1-15.9Z"/><path class="cls-1" d="m250.7,53.5c0-14.1,3.1-25,9.3-32.5,6.2-7.6,13.9-11.4,23.2-11.4,6,0,11.4,1.7,16.4,5.1,4.9,3.4,8.8,8.3,11.7,14.8,2.9,6.5,4.3,14.1,4.3,23.1,0,12.3-2.8,22.3-8.4,30-6.1,8.5-14.2,12.8-24.1,12.8s-18.1-4.4-24.2-13.1c-5.4-8.1-8.2-17.6-8.2-28.8Zm9.3.1c0,10.2,2.2,18.1,6.7,23.8,4.5,5.6,10,8.4,16.4,8.4s12.1-2.8,16.6-8.5,6.7-14.1,6.7-25.1c0-7.1-1.1-13.5-3.4-19.1-1.8-4.3-4.4-7.7-8-10.3-3.6-2.6-7.4-3.9-11.7-3.9-6.8,0-12.4,2.8-16.7,8.5-4.4,5.7-6.6,14.4-6.6,26.2Z"/><path class="cls-1" d="m327,93.8V11h30.1c6.3,0,10.9.8,13.9,2.3s5.4,4.1,7.4,7.7c1.9,3.6,2.9,7.8,2.9,12.5,0,6.2-1.6,11.3-4.9,15.2-3.3,3.9-8,6.3-14.2,7.4,2.5,1.5,4.4,3,5.8,4.6,2.7,3.2,5,6.7,7.1,10.6l11.9,22.5h-11.3l-9.1-17.2c-3.5-6.7-6.2-11.3-7.9-13.6s-3.5-3.9-5.2-4.7c-1.7-.8-4-1.2-7-1.2h-10.4v36.8h-9.1v-.1Zm9-46.3h19.3c4.2,0,7.4-.5,9.6-1.5s3.9-2.6,5.2-4.8c1.3-2.2,1.9-4.7,1.9-7.6,0-4.2-1.2-7.5-3.7-9.9-2.4-2.4-6.1-3.6-10.9-3.6h-21.5v27.4h.1Z"/><path class="cls-1" d="m395.2,93.8V11h9.2l35.7,65.1V11h8.6v82.8h-9.2l-35.7-65.1v65.1h-8.6Z"/><path class="cls-1" d="m464,93.8V11h49.1v9.8h-40.1v25.3h37.5v9.8h-37.5v28.2h41.7v9.8h-50.7v-.1Z"/><path class="cls-1" d="m527,93.8V11h30.1c6.3,0,10.9.8,13.9,2.3s5.4,4.1,7.4,7.7c1.9,3.6,2.9,7.8,2.9,12.5,0,6.2-1.6,11.3-4.9,15.2-3.3,3.9-8,6.3-14.2,7.4,2.5,1.5,4.4,3,5.8,4.6,2.7,3.2,5,6.7,7.1,10.6l11.9,22.5h-11.3l-9.1-17.2c-3.5-6.7-6.2-11.3-7.9-13.6-1.8-2.3-3.5-3.9-5.2-4.7-1.7-.8-4-1.2-7-1.2h-10.4v36.8h-9.1v-.1Zm9-46.3h19.3c4.2,0,7.4-.5,9.6-1.5,2.2-1,3.9-2.6,5.2-4.8,1.3-2.2,1.9-4.7,1.9-7.6,0-4.2-1.2-7.5-3.7-9.9-2.4-2.4-6.1-3.6-10.9-3.6h-21.5v27.4h.1Z"/><path class="cls-1" d="m592.5,67.1l8.5-.9c.5,4.6,1.5,8.1,3.1,10.6s3.9,4.6,6.9,6.1,6.3,2.3,10,2.3c5.3,0,9.5-1.3,12.4-3.9,3-2.6,4.4-6,4.4-10.2,0-2.4-.5-4.6-1.6-6.4s-2.7-3.3-4.9-4.5-6.8-2.8-14-4.9c-6.4-1.9-11-3.8-13.7-5.7-2.7-1.9-4.8-4.4-6.3-7.3-1.5-3-2.3-6.3-2.3-10,0-6.7,2.2-12.2,6.5-16.4,4.3-4.3,10.2-6.4,17.5-6.4,5,0,9.5,1,13.2,3,3.8,2,6.7,4.9,8.8,8.6s3.2,8.1,3.4,13.2l-8.6.8c-.5-5.4-2.1-9.4-4.8-12s-6.7-3.9-11.7-3.9-9,1.1-11.6,3.4c-2.7,2.3-4,5.2-4,8.8,0,3.4,1,5.9,2.9,7.8,2,1.8,6.4,3.7,13.2,5.6,6.7,1.9,11.4,3.5,14.1,4.8,4.1,2.1,7.3,4.9,9.4,8.3,2.1,3.4,3.2,7.5,3.2,12.3s-1.1,9.1-3.3,12.9c-2.2,3.9-5.2,6.9-9.1,8.9-3.8,2-8.4,3-13.8,3-8.4,0-15.1-2.5-20.1-7.6-4.9-4.8-7.5-11.6-7.7-20.3Z"/><path class="cls-1" d="m676.1,93.8V20.8h-22.3v-9.8h53.8v9.8h-22.5v73h-9Z"/><path class="cls-1" d="m712.5,53.5c0-14.1,3.1-25,9.3-32.5,6.2-7.7,14-11.4,23.2-11.4,6,0,11.4,1.7,16.4,5.1,4.9,3.4,8.8,8.3,11.7,14.8s4.3,14.1,4.3,23.1c0,12.3-2.8,22.3-8.4,30-6.1,8.5-14.2,12.8-24.1,12.8s-18.1-4.4-24.2-13.1c-5.4-8.1-8.2-17.6-8.2-28.8Zm9.3.1c0,10.2,2.2,18.1,6.7,23.8,4.5,5.6,10,8.4,16.4,8.4s12.1-2.8,16.6-8.5,6.7-14.1,6.7-25.1c0-7.1-1.1-13.5-3.4-19.1-1.8-4.3-4.4-7.7-8-10.3-3.6-2.6-7.4-3.9-11.7-3.9-6.8,0-12.4,2.8-16.7,8.5-4.4,5.7-6.6,14.4-6.6,26.2Z"/><path class="cls-1" d="m788.5,93.8V11h9.2l35.7,65.1V11h8.6v82.8h-9.2l-35.6-65.1v65.1h-8.7Z"/><path class="cls-1" d="m857.4,93.8V11h49.1v9.8h-40.1v25.3h37.5v9.8h-37.5v28.2h41.7v9.8h-50.7v-.1Z"/><path class="cls-1" d="m187.1,133.2v-25h2.7v25h-2.7Z"/><path class="cls-1" d="m194.4,133.2v-25h2.8l10.8,19.6v-19.6h2.6v25h-2.8l-10.8-19.6v19.6h-2.6Z"/><path class="cls-1" d="m220.4,133.2v-22h-6.7v-2.9h16.2v2.9h-6.8v22h-2.7Z"/><path class="cls-1" d="m232.7,133.2v-25h14.8v2.9h-12.1v7.6h11.3v2.9h-11.3v8.5h12.6v2.9h-15.3v.2Z"/><path class="cls-1" d="m251.7,133.2v-25h9.1c1.9,0,3.3.2,4.2.7.9.5,1.6,1.2,2.2,2.3s.9,2.3.9,3.8c0,1.9-.5,3.4-1.5,4.6-1,1.2-2.4,1.9-4.3,2.2.8.5,1.3.9,1.7,1.4.8,1,1.5,2,2.1,3.2l3.6,6.8h-3.4l-2.7-5.2c-1.1-2-1.9-3.4-2.4-4.1-.5-.7-1.1-1.2-1.6-1.4s-1.2-.4-2.1-.4h-3.1v11.1h-2.7Zm2.7-13.9h5.8c1.3,0,2.2-.2,2.9-.5.7-.3,1.2-.8,1.6-1.4s.6-1.4.6-2.3c0-1.3-.4-2.3-1.1-3s-1.8-1.1-3.3-1.1h-6.5v8.3Z"/><path class="cls-1" d="m272.2,133.2v-25h2.8l10.8,19.6v-19.6h2.6v25h-2.8l-10.8-19.6v19.6h-2.6Z"/><path class="cls-1" d="m290.7,133.2l7.9-25h2.9l8.4,25h-3.1l-2.4-7.6h-8.6l-2.2,7.6h-2.9Zm5.9-10.2h7l-2.1-6.9c-.7-2.1-1.1-3.8-1.4-5.2-.3,1.6-.6,3.2-1.1,4.8l-2.4,7.3Z"/><path class="cls-1" d="m315.2,133.2v-22h-6.7v-2.9h16.2v2.9h-6.8v22h-2.7Z"/><path class="cls-1" d="m327.9,133.2v-25h2.7v25h-2.7Z"/><path class="cls-1" d="m334.6,121.1c0-4.3.9-7.5,2.8-9.8s4.2-3.4,7-3.4c1.8,0,3.4.5,4.9,1.5s2.7,2.5,3.5,4.5c.9,1.9,1.3,4.3,1.3,7,0,3.7-.8,6.7-2.5,9-1.8,2.6-4.3,3.8-7.3,3.8s-5.4-1.3-7.3-4c-1.6-2.4-2.4-5.3-2.4-8.6Zm2.8,0c0,3.1.7,5.5,2,7.2,1.4,1.7,3,2.5,4.9,2.5,2,0,3.7-.9,5-2.6,1.3-1.7,2-4.2,2-7.6,0-2.1-.3-4.1-1-5.8-.5-1.3-1.3-2.3-2.4-3.1s-2.2-1.2-3.5-1.2c-2,0-3.7.9-5,2.6-1.4,1.8-2,4.4-2,8Z"/><path class="cls-1" d="m357.5,133.2v-25h2.8l10.8,19.6v-19.6h2.6v25h-2.8l-10.8-19.6v19.6h-2.6Z"/><path class="cls-1" d="m376,133.2l7.9-25h2.9l8.4,25h-3.1l-2.4-7.6h-8.6l-2.2,7.6h-2.9Zm5.9-10.2h7l-2.1-6.9c-.7-2.1-1.1-3.8-1.4-5.2-.3,1.6-.6,3.2-1.1,4.8l-2.4,7.3Z"/><path class="cls-1" d="m397.1,133.2v-25h2.7v22h10.1v2.9h-12.8v.1Z"/><path class="cls-1" d="m434.7,124.5l2.7.8c-.6,2.8-1.7,4.9-3.2,6.3-1.5,1.4-3.3,2.1-5.5,2.1-1.9,0-3.5-.5-4.9-1.4-1.3-.9-2.4-2.4-3.3-4.5-.9-2-1.3-4.5-1.3-7.2s.4-5.1,1.3-7,2-3.3,3.5-4.3,3.1-1.5,4.9-1.5c2,0,3.7.6,5.1,1.8s2.4,3,3,5.4l-2.7.8c-.9-3.5-2.7-5.2-5.5-5.2-1.4,0-2.5.3-3.5,1s-1.8,1.8-2.4,3.3-.9,3.3-.9,5.6c0,3.4.6,6,1.8,7.7,1.2,1.7,2.8,2.6,4.8,2.6,1.5,0,2.8-.5,3.8-1.6,1.2-1,1.9-2.6,2.3-4.7Z"/><path class="cls-1" d="m440,121.1c0-4.3.9-7.5,2.8-9.8s4.2-3.4,7-3.4c1.8,0,3.4.5,4.9,1.5s2.7,2.5,3.5,4.5c.9,1.9,1.3,4.3,1.3,7,0,3.7-.8,6.7-2.5,9-1.8,2.6-4.3,3.8-7.3,3.8s-5.4-1.3-7.3-4c-1.6-2.4-2.4-5.3-2.4-8.6Zm2.8,0c0,3.1.7,5.5,2,7.2,1.4,1.7,3,2.5,4.9,2.5,2,0,3.7-.9,5-2.6,1.3-1.7,2-4.2,2-7.6,0-2.1-.3-4.1-1-5.8-.5-1.3-1.3-2.3-2.4-3.1s-2.2-1.2-3.5-1.2c-2,0-3.7.9-5,2.6-1.3,1.8-2,4.4-2,8Z"/><path class="cls-1" d="m462.9,133.2v-25h4.1l4.9,17.7,1,3.7c.2-.9.6-2.3,1.1-4l4.9-17.4h3.6v25h-2.6v-20.9l-6,20.9h-2.4l-5.9-21.2v21.2h-2.7Z"/><path class="cls-1" d="m486.8,133.2v-25h4.1l4.9,17.7,1,3.7c.2-.9.6-2.3,1.1-4l4.9-17.4h3.6v25h-2.6v-20.9l-6,20.9h-2.4l-5.9-21.2v21.2h-2.7Z"/><path class="cls-1" d="m524,108.3h2.7v14.4c0,2.4-.2,4.4-.7,6-.5,1.5-1.3,2.8-2.6,3.7-1.2.9-2.8,1.3-4.7,1.3-2.7,0-4.7-.8-6.1-2.4-1.3-1.6-2-4.5-2-8.5v-14.4h2.7v14.4c0,2.3.2,3.9.5,4.9s.9,1.8,1.7,2.3,1.8.8,2.9.8c1.9,0,3.3-.5,4.2-1.6s1.3-3.2,1.3-6.4v-14.5h.1Z"/><path class="cls-1" d="m531.2,133.2v-25h2.8l10.8,19.6v-19.6h2.6v25h-2.8l-10.8-19.6v19.6h-2.6Z"/><path class="cls-1" d="m552.4,133.2v-25h2.7v25h-2.7Z"/><path class="cls-1" d="m565.1,133.2v-22h-6.7v-2.9h16.2v2.9h-6.8v22h-2.7Z"/><path class="cls-1" d="m583.1,133.2v-10.6l-7.9-14.4h3.3l4,7.5c.8,1.5,1.5,2.9,2.1,4.2.6-1.3,1.3-2.8,2.2-4.4l4-7.3h3.1l-8.1,14.4v10.6h-2.7Z"/><path class="cls-1" d="m618.4,124.5l2.7.8c-.6,2.8-1.7,4.9-3.2,6.3-1.5,1.4-3.3,2.1-5.5,2.1-1.9,0-3.5-.5-4.9-1.4-1.3-.9-2.4-2.4-3.3-4.5-.9-2-1.3-4.5-1.3-7.2s.4-5.1,1.3-7c.9-1.9,2-3.3,3.5-4.3s3.1-1.5,4.9-1.5c2,0,3.7.6,5.1,1.8,1.4,1.2,2.4,3,3,5.4l-2.7.8c-.9-3.5-2.7-5.2-5.5-5.2-1.4,0-2.5.3-3.5,1s-1.8,1.8-2.4,3.3c-.6,1.5-.9,3.3-.9,5.6,0,3.4.6,6,1.8,7.7s2.8,2.6,4.8,2.6c1.5,0,2.8-.5,3.8-1.6,1.2-1,2-2.6,2.3-4.7Z"/><path class="cls-1" d="m623.8,121.1c0-4.3.9-7.5,2.8-9.8,1.9-2.3,4.2-3.4,7-3.4,1.8,0,3.4.5,4.9,1.5s2.7,2.5,3.5,4.5c.9,1.9,1.3,4.3,1.3,7,0,3.7-.8,6.7-2.5,9-1.8,2.6-4.3,3.8-7.3,3.8s-5.4-1.3-7.3-4c-1.6-2.4-2.4-5.3-2.4-8.6Zm2.8,0c0,3.1.7,5.5,2,7.2,1.4,1.7,3,2.5,4.9,2.5,2,0,3.7-.9,5-2.6,1.3-1.7,2-4.2,2-7.6,0-2.1-.3-4.1-1-5.8-.5-1.3-1.3-2.3-2.4-3.1-1.1-.8-2.2-1.2-3.5-1.2-2,0-3.7.9-5,2.6-1.4,1.8-2,4.4-2,8Z"/><path class="cls-1" d="m646.6,133.2v-25h2.7v22h10.1v2.9h-12.8v.1Z"/><path class="cls-1" d="m662.5,133.2v-25h2.7v22h10.1v2.9h-12.8v.1Z"/><path class="cls-1" d="m678.6,133.2v-25h14.8v2.9h-12.1v7.6h11.3v2.9h-11.3v8.5h12.6v2.9h-15.3v.2Z"/><path class="cls-1" d="m707.3,123.4v-2.9h8.7v9.3c-1.3,1.3-2.7,2.3-4.1,2.9-1.4.7-2.9,1-4.4,1-2,0-3.8-.5-5.3-1.5-1.6-1-2.8-2.5-3.7-4.4s-1.4-4.2-1.4-6.9.5-5.1,1.4-7.1,2.1-3.5,3.6-4.5,3.2-1.4,5.3-1.4c1.5,0,2.8.3,3.9.8,1.1.6,2,1.3,2.8,2.4.7,1,1.3,2.4,1.6,4.2l-2.4.8c-.3-1.4-.7-2.5-1.2-3.2s-1.2-1.2-2-1.6c-.8-.4-1.7-.6-2.8-.6-1.5,0-2.8.4-3.8,1.1-1.1.7-1.9,1.8-2.6,3.4s-1,3.4-1,5.6c0,3.3.7,5.8,2.1,7.5,1.4,1.7,3.2,2.5,5.4,2.5,1.1,0,2.2-.3,3.3-.8s2-1.1,2.7-1.8v-4.6h-6.1v-.2Z"/><path class="cls-1" d="m720,133.2v-25h14.8v2.9h-12.1v7.6h11.3v2.9h-11.3v8.5h12.6v2.9h-15.3v.2Z"/><path class="cls-1" d="m746.2,121.1c0-4.3.9-7.5,2.8-9.8,1.9-2.3,4.2-3.4,7-3.4,1.8,0,3.4.5,4.9,1.5s2.7,2.5,3.5,4.5c.9,1.9,1.3,4.3,1.3,7,0,3.7-.8,6.7-2.5,9-1.8,2.6-4.3,3.8-7.3,3.8s-5.4-1.3-7.3-4c-1.6-2.4-2.4-5.3-2.4-8.6Zm2.8,0c0,3.1.7,5.5,2,7.2,1.4,1.7,3,2.5,4.9,2.5,2,0,3.7-.9,5-2.6,1.3-1.7,2-4.2,2-7.6,0-2.1-.3-4.1-1-5.8-.5-1.3-1.3-2.3-2.4-3.1-1.1-.8-2.2-1.2-3.5-1.2-2,0-3.7.9-5,2.6-1.4,1.8-2,4.4-2,8Z"/><path class="cls-1" d="m769.4,133.2v-25h13.8v2.9h-11.1v7.7h9.6v2.9h-9.6v11.3h-2.7v.2Z"/><path class="cls-1" d="m809.1,124.5l2.7.8c-.6,2.8-1.7,4.9-3.2,6.3-1.5,1.4-3.3,2.1-5.5,2.1-1.9,0-3.5-.5-4.9-1.4-1.3-.9-2.4-2.4-3.3-4.5-.9-2-1.3-4.5-1.3-7.2s.4-5.1,1.3-7c.9-1.9,2-3.3,3.5-4.3s3.1-1.5,4.9-1.5c2,0,3.7.6,5.1,1.8,1.4,1.2,2.4,3,3,5.4l-2.7.8c-.9-3.5-2.7-5.2-5.5-5.2-1.4,0-2.5.3-3.5,1s-1.8,1.8-2.4,3.3c-.6,1.5-.9,3.3-.9,5.6,0,3.4.6,6,1.8,7.7s2.8,2.6,4.8,2.6c1.5,0,2.8-.5,3.8-1.6,1.3-1,2-2.6,2.3-4.7Z"/><path class="cls-1" d="m813,133.2l7.9-25h2.9l8.4,25h-3.1l-2.4-7.6h-8.6l-2.2,7.6h-2.9Zm5.9-10.2h7l-2.1-6.9c-.7-2.1-1.1-3.8-1.4-5.2-.3,1.6-.6,3.2-1.1,4.8l-2.4,7.3Z"/><path class="cls-1" d="m834.2,133.2v-25h2.8l10.8,19.6v-19.6h2.6v25h-2.8l-10.8-19.6v19.6h-2.6Z"/><path class="cls-1" d="m852.7,133.2l7.9-25h2.9l8.4,25h-3.1l-2.4-7.6h-8.6l-2.2,7.6h-2.9Zm5.9-10.2h7l-2.1-6.9c-.7-2.1-1.1-3.8-1.4-5.2-.3,1.6-.6,3.2-1.1,4.8l-2.4,7.3Z"/><path class="cls-1" d="m874,133.2v-25h7.1c1.7,0,3.1.2,4,.5,1.2.4,2.2,1.1,3.1,2.2.9,1.1,1.6,2.4,2,4,.5,1.6.7,3.5.7,5.7,0,2.8-.4,5.2-1.2,7.2s-1.9,3.4-3.2,4.2-3,1.2-5.1,1.2h-7.4Zm2.7-2.9h4.4c1.8,0,3.1-.3,4-.9.9-.6,1.6-1.5,2.1-2.8.6-1.7,1-3.7,1-6.1s-.3-4.5-1-6c-.7-1.4-1.6-2.4-2.6-2.9-.7-.3-1.9-.5-3.5-.5h-4.3v19.2h-.1Z"/><path class="cls-1" d="m892.4,133.2l7.9-25h2.9l8.4,25h-3.1l-2.4-7.6h-8.6l-2.2,7.6h-2.9Zm5.9-10.2h7l-2.1-6.9c-.7-2.1-1.1-3.8-1.4-5.2-.3,1.6-.6,3.2-1.1,4.8l-2.4,7.3Z"/></svg>